<svg width="24" height="24" viewBox="0 0 24 24" fill="none" xmlns="http://www.w3.org/2000/svg">
<g id="fluent:call-12-regular">
<path id="Vector" d="M11.1219 5.102C10.974 4.69922 10.6775 4.36832 10.2934 4.17716C9.90919 3.98601 9.46645 3.9491 9.05593 4.074C7.10993 4.674 5.74993 6.344 6.04193 8.276C6.3685 10.4203 7.09511 12.4841 8.18393 14.36C9.26111 16.2316 10.6733 17.8892 12.3499 19.25C13.8579 20.47 15.9739 20.134 17.4659 18.734C17.7798 18.4394 17.9702 18.0368 17.9988 17.6073C18.0274 17.1779 17.892 16.7536 17.6199 16.42L16.5519 15.114C16.338 14.8514 16.0501 14.6591 15.7256 14.5621C15.4011 14.4651 15.0549 14.4679 14.7319 14.57L12.2679 15.35L11.8379 14.906C11.2961 14.3441 10.8222 13.7205 10.4259 13.048C10.0413 12.3679 9.74172 11.6432 9.53393 10.89L9.36793 10.3L11.2679 8.55C11.5186 8.31721 11.6945 8.01515 11.7732 7.6822C11.8519 7.34924 11.8299 7.00041 11.7099 6.68L11.1239 5.104L11.1219 5.102ZM8.46793 2.162C9.36624 1.88716 10.3356 1.96626 11.1775 2.3831C12.0194 2.79995 12.67 3.52296 12.9959 4.404L13.5819 5.98C13.8404 6.67239 13.8872 7.42602 13.7162 8.14505C13.5453 8.86408 13.1644 9.51604 12.6219 10.018L11.6419 10.92C11.7679 11.268 11.9379 11.666 12.1579 12.052C12.3779 12.432 12.6339 12.778 12.8679 13.06L14.1279 12.66C14.8324 12.4376 15.5873 12.4317 16.2951 12.6432C17.0029 12.8546 17.6309 13.2737 18.0979 13.846L19.1659 15.152C19.7595 15.8778 20.0553 16.8019 19.9937 17.7375C19.9321 18.673 19.5176 19.5503 18.8339 20.192C16.8459 22.058 13.5999 22.832 11.0939 20.804C9.22661 19.2891 7.65379 17.4438 6.45393 15.36C5.23923 13.2677 4.4285 10.9657 4.06393 8.574C3.58393 5.388 5.86993 2.962 8.46793 2.164V2.162Z" fill="#EFF2F5"/>
</g>
</svg>
