<svg width="24" height="24" viewBox="0 0 24 24" fill="none" xmlns="http://www.w3.org/2000/svg">
<g id="fluent:send-24-filled">
<path id="Vector" d="M12.8151 12.1969L5.28308 13.4519C5.19649 13.4664 5.11522 13.5034 5.04746 13.5592C4.97971 13.615 4.92784 13.6877 4.89708 13.7699L2.30008 20.7279C2.05208 21.3679 2.72108 21.9779 3.33508 21.6699L21.3351 12.6699C21.4595 12.6076 21.5641 12.5118 21.6372 12.3934C21.7103 12.275 21.749 12.1386 21.749 11.9994C21.749 11.8603 21.7103 11.7238 21.6372 11.6054C21.5641 11.487 21.4595 11.3913 21.3351 11.3289L3.33508 2.32893C2.72108 2.02193 2.05208 2.63193 2.30008 3.27093L4.89808 10.2289C4.92884 10.3112 4.98071 10.3838 5.04846 10.4397C5.11622 10.4955 5.19749 10.5325 5.28408 10.5469L12.8161 11.8019C12.8631 11.8094 12.9058 11.8334 12.9367 11.8696C12.9676 11.9058 12.9846 11.9518 12.9846 11.9994C12.9846 12.047 12.9676 12.093 12.9367 12.1292C12.9058 12.1654 12.8631 12.1894 12.8161 12.1969H12.8151Z" fill="white"/>
</g>
</svg>
