<svg width="24" height="24" viewBox="0 0 24 24" fill="none" xmlns="http://www.w3.org/2000/svg">
<g id="humbleicons:mail">
<g id="Group">
<path id="Vector" d="M20 6H4C3.73478 6 3.48043 6.10536 3.29289 6.29289C3.10536 6.48043 3 6.73478 3 7V17C3 17.2652 3.10536 17.5196 3.29289 17.7071C3.48043 17.8946 3.73478 18 4 18H20C20.2652 18 20.5196 17.8946 20.7071 17.7071C20.8946 17.5196 21 17.2652 21 17V7C21 6.73478 20.8946 6.48043 20.7071 6.29289C20.5196 6.10536 20.2652 6 20 6Z" stroke="#EFF2F5" stroke-width="2" stroke-linejoin="round"/>
<path id="Vector_2" d="M3 8L10.89 13.26C11.2187 13.4793 11.6049 13.5963 12 13.5963C12.3951 13.5963 12.7813 13.4793 13.11 13.26L21 8" stroke="#EFF2F5" stroke-width="2" stroke-linecap="round"/>
</g>
</g>
</svg>
