<svg width="24" height="23" viewBox="0 0 24 23" fill="none" xmlns="http://www.w3.org/2000/svg">
<rect width="24" height="23" rx="11.5" fill="#EFF3F3"/>
<path d="M16.2778 5.5C16.6019 5.5 16.9128 5.64048 17.142 5.89052C17.3712 6.14057 17.5 6.47971 17.5 6.83333V16.1667C17.5 16.5203 17.3712 16.8594 17.142 17.1095C16.9128 17.3595 16.6019 17.5 16.2778 17.5H7.72222C7.39807 17.5 7.08719 17.3595 6.85798 17.1095C6.62877 16.8594 6.5 16.5203 6.5 16.1667V6.83333C6.5 6.47971 6.62877 6.14057 6.85798 5.89052C7.08719 5.64048 7.39807 5.5 7.72222 5.5H16.2778ZM15.9722 15.8333V12.3C15.9722 11.7236 15.7623 11.1708 15.3887 10.7632C15.0151 10.3556 14.5084 10.1267 13.98 10.1267C13.4606 10.1267 12.8556 10.4733 12.5622 10.9933V10.2533H10.8572V15.8333H12.5622V12.5467C12.5622 12.0333 12.9411 11.6133 13.4117 11.6133C13.6386 11.6133 13.8562 11.7117 14.0166 11.8867C14.1771 12.0617 14.2672 12.2991 14.2672 12.5467V15.8333H15.9722ZM8.87111 9.20667C9.1434 9.20667 9.40454 9.08867 9.59707 8.87863C9.78961 8.66859 9.89778 8.38371 9.89778 8.08667C9.89778 7.46667 9.43944 6.96 8.87111 6.96C8.5972 6.96 8.33451 7.0787 8.14083 7.28999C7.94714 7.50128 7.83833 7.78786 7.83833 8.08667C7.83833 8.70667 8.30278 9.20667 8.87111 9.20667ZM9.72056 15.8333V10.2533H8.02778V15.8333H9.72056Z" fill="#005C53"/>
</svg>
