<svg width="116" height="50" viewBox="0 0 116 50" fill="none" xmlns="http://www.w3.org/2000/svg">
<rect x="49.5" y="49.5" width="49" height="49" rx="24.5" transform="rotate(-180 49.5 49.5)" stroke="#005C4E"/>
<path fill-rule="evenodd" clip-rule="evenodd" d="M28.4878 32.5607C28.3367 32.6899 28.1405 32.7539 27.9423 32.7385C27.7441 32.7231 27.5602 32.6297 27.4308 32.4787L21.4308 25.4787C21.3143 25.3428 21.2503 25.1697 21.2503 24.9907C21.2503 24.8117 21.3143 24.6387 21.4308 24.5027L27.4308 17.5027C27.5623 17.3591 27.7445 17.2723 27.9388 17.2606C28.1331 17.2489 28.3244 17.3132 28.4722 17.4399C28.62 17.5667 28.7127 17.7459 28.7307 17.9398C28.7487 18.1336 28.6907 18.3269 28.5688 18.4787L22.9878 24.9907L28.5688 31.5027C28.6983 31.6536 28.7625 31.8496 28.7475 32.0478C28.7325 32.246 28.6395 32.4301 28.4888 32.5597L28.4878 32.5607Z" fill="#005C4E"/>
<rect x="66.5" y="0.5" width="49" height="49" rx="24.5" stroke="#005C4E"/>
<path fill-rule="evenodd" clip-rule="evenodd" d="M87.5122 17.4393C87.6633 17.3101 87.8595 17.2461 88.0577 17.2615C88.2559 17.2769 88.4399 17.3703 88.5692 17.5213L94.5692 24.5213C94.6857 24.6572 94.7497 24.8303 94.7497 25.0093C94.7497 25.1883 94.6857 25.3613 94.5692 25.4973L88.5692 32.4973C88.4377 32.6408 88.2555 32.7277 88.0612 32.7394C87.8669 32.7511 87.6756 32.6868 87.5278 32.5601C87.38 32.4333 87.2873 32.2541 87.2693 32.0602C87.2513 31.8664 87.3093 31.6731 87.4312 31.5213L93.0122 25.0093L87.4312 18.4973C87.3018 18.3464 87.2375 18.1504 87.2525 17.9522C87.2675 17.754 87.3605 17.5699 87.5112 17.4403L87.5122 17.4393Z" fill="#005C4E"/>
</svg>
