<svg width="23" height="23" viewBox="0 0 23 23" fill="none" xmlns="http://www.w3.org/2000/svg">
<rect width="23" height="23" rx="11.5" fill="#EFF3F3"/>
<path d="M8.77 5H14.23C16.31 5 18 6.69 18 8.77V14.23C18 15.2299 17.6028 16.1888 16.8958 16.8958C16.1888 17.6028 15.2299 18 14.23 18H8.77C6.69 18 5 16.31 5 14.23V8.77C5 7.77013 5.3972 6.81122 6.10421 6.10421C6.81122 5.3972 7.77013 5 8.77 5ZM8.64 6.3C8.01939 6.3 7.42421 6.54654 6.98537 6.98537C6.54654 7.42421 6.3 8.01939 6.3 8.64V14.36C6.3 15.6535 7.3465 16.7 8.64 16.7H14.36C14.9806 16.7 15.5758 16.4535 16.0146 16.0146C16.4535 15.5758 16.7 14.9806 16.7 14.36V8.64C16.7 7.3465 15.6535 6.3 14.36 6.3H8.64ZM14.9125 7.275C15.128 7.275 15.3347 7.3606 15.487 7.51298C15.6394 7.66535 15.725 7.87201 15.725 8.0875C15.725 8.30299 15.6394 8.50965 15.487 8.66202C15.3347 8.8144 15.128 8.9 14.9125 8.9C14.697 8.9 14.4903 8.8144 14.338 8.66202C14.1856 8.50965 14.1 8.30299 14.1 8.0875C14.1 7.87201 14.1856 7.66535 14.338 7.51298C14.4903 7.3606 14.697 7.275 14.9125 7.275ZM11.5 8.25C12.362 8.25 13.1886 8.59241 13.7981 9.2019C14.4076 9.8114 14.75 10.638 14.75 11.5C14.75 12.362 14.4076 13.1886 13.7981 13.7981C13.1886 14.4076 12.362 14.75 11.5 14.75C10.638 14.75 9.8114 14.4076 9.2019 13.7981C8.59241 13.1886 8.25 12.362 8.25 11.5C8.25 10.638 8.59241 9.8114 9.2019 9.2019C9.8114 8.59241 10.638 8.25 11.5 8.25ZM11.5 9.55C10.9828 9.55 10.4868 9.75545 10.1211 10.1211C9.75545 10.4868 9.55 10.9828 9.55 11.5C9.55 12.0172 9.75545 12.5132 10.1211 12.8789C10.4868 13.2446 10.9828 13.45 11.5 13.45C12.0172 13.45 12.5132 13.2446 12.8789 12.8789C13.2446 12.5132 13.45 12.0172 13.45 11.5C13.45 10.9828 13.2446 10.4868 12.8789 10.1211C12.5132 9.75545 12.0172 9.55 11.5 9.55Z" fill="#005C53"/>
</svg>
