<svg width="12" height="12" viewBox="0 0 12 12" fill="none" xmlns="http://www.w3.org/2000/svg">
<g id="Group">
<path id="Vector" d="M10.7222 2.66675H1.27777M9.7961 4.05564L9.54055 7.88897C9.44222 9.36341 9.39333 10.1006 8.91277 10.5501C8.43222 11.0001 7.69277 11.0001 6.21499 11.0001H5.78499C4.30722 11.0001 3.56777 11.0001 3.08722 10.5501C2.60666 10.1006 2.55722 9.36341 2.45944 7.88897L2.20388 4.05564M4.6111 5.44453L4.88888 8.2223M7.38888 5.44453L7.1111 8.2223" stroke="#EFEFEF" stroke-linecap="round"/>
<path id="Vector_2" d="M2.94446 2.66667H3.00557C3.22915 2.66095 3.4458 2.5879 3.62719 2.45706C3.80858 2.32622 3.94627 2.14369 4.02224 1.93333L4.04112 1.87611L4.09501 1.71444C4.14112 1.57611 4.16446 1.50722 4.19501 1.44833C4.25513 1.33299 4.34141 1.23333 4.44694 1.15731C4.55248 1.08129 4.67435 1.03103 4.80279 1.01056C4.86779 1 4.94057 1 5.08612 1H6.9139C7.05946 1 7.13224 1 7.19724 1.01056C7.32568 1.03103 7.44754 1.08129 7.55308 1.15731C7.65862 1.23333 7.7449 1.33299 7.80501 1.44833C7.83557 1.50722 7.8589 1.57611 7.90501 1.71444L7.9589 1.87611C8.02931 2.11015 8.17491 2.31445 8.37317 2.45737C8.57143 2.60029 8.81127 2.67385 9.05557 2.66667" stroke="#EFEFEF"/>
</g>
</svg>
